<?xml version="1.0" encoding="utf-8"?>
<!-- Generator: Adobe Illustrator 17.0.0, SVG Export Plug-In . SVG Version: 6.00 Build 0)  -->
<!DOCTYPE svg PUBLIC "-//W3C//DTD SVG 1.1//EN" "http://www.w3.org/Graphics/SVG/1.1/DTD/svg11.dtd">
<svg version="1.1" id="Layer_1" xmlns="http://www.w3.org/2000/svg" xmlns:xlink="http://www.w3.org/1999/xlink" x="0px" y="0px"
	 width="216px" height="144px" viewBox="0 0 216 144" enable-background="new 0 0 216 144" xml:space="preserve">
<g>
	<g>
		<path fill="#00467F" d="M51.657,65.715h0.636c0.552,2.793,2.046,5.144,5.227,5.144c2.158,0,3.956-1.216,3.956-3.457
			c0-2.517-2.184-3.512-4.204-4.315c-2.518-0.968-5.199-2.296-5.199-5.448c0-3.154,2.46-4.979,5.476-4.979
			c1.521,0,2.932,0.525,4.177,1.411l0.635-1.078h0.305l0.138,4.784h-0.636c-0.636-2.295-1.936-4.37-4.619-4.37
			c-1.771,0-3.236,1.134-3.236,2.931c0,2.186,1.963,2.933,3.679,3.652c2.876,1.188,6.085,2.627,6.085,6.25
			c0,3.623-3.374,5.366-6.611,5.366c-1.881,0-3.347-0.554-4.84-1.659l-0.664,1.16h-0.304V65.715z"/>
		<path fill="#00467F" d="M79.771,65.301c0,3.733-3.042,6.306-6.665,6.306c-3.596,0-6.638-2.767-6.638-6.417
			c0-3.541,3.263-6.113,6.638-6.113C76.536,59.077,79.771,61.732,79.771,65.301z M69.234,65.301c0,2.627,0.773,5.67,4.009,5.67
			c3.015,0,3.762-3.043,3.762-5.504c0-2.655-0.747-5.753-4.01-5.753C69.98,59.713,69.234,62.894,69.234,65.301z"/>
		<path fill="#00467F" d="M93.026,69.477c-1.161,1.438-3.071,2.13-4.867,2.13c-3.431,0-5.947-2.435-5.947-5.864
			c0-3.873,2.931-6.666,6.776-6.666c1.079,0,3.596,0.332,3.596,1.854c0,0.498-0.415,1.023-0.914,1.023
			c-0.664,0-1.023-0.553-1.217-1.079c-0.332-0.83-0.553-1.051-1.576-1.051c-2.987,0-3.9,3.042-3.9,5.477
			c0,2.655,0.857,5.42,3.983,5.42c1.382,0,2.601-0.718,3.485-1.741L93.026,69.477z"/>
		<path fill="#00467F" d="M99.256,59.077v8.879c0.055,1.825-0.25,2.656,1.936,2.792v0.554c-0.94-0.027-1.963-0.082-2.959-0.11
			c-1.079,0.028-2.158,0.083-3.236,0.11v-0.554c2.046-0.137,1.881-0.801,1.908-2.627v-3.955c0-0.526,0-2.655-0.111-3.07
			c-0.194-0.691-1.356-0.637-1.908-0.608v-0.553L99.256,59.077z M96.269,54.154c0-0.831,0.663-1.494,1.493-1.494
			c0.831,0,1.467,0.664,1.467,1.494c0,0.802-0.636,1.465-1.411,1.465C96.988,55.619,96.269,55.01,96.269,54.154z"/>
		<path fill="#00467F" d="M113.979,69.256c-1.301,1.604-2.849,2.351-4.924,2.351c-3.43,0-6.25-2.407-6.25-5.946
			c0-3.458,2.627-6.584,6.223-6.584c2.711,0,5.282,1.521,5.282,4.509c0,0.359-0.415,0.249-0.691,0.249h-7.939l-0.11,1.328
			c0,2.627,1.383,5.559,4.343,5.559c1.41,0,2.654-0.94,3.485-2.046L113.979,69.256z M110.383,63.087
			c0.442,0,1.355,0.139,1.355-0.553c0-1.714-0.941-2.821-2.684-2.821c-2.075,0-2.905,1.577-3.236,3.374H110.383z"/>
		<path fill="#00467F" d="M116.435,60.293v-0.497c1.384-0.803,2.766-1.908,3.346-3.485h0.416v3.236h3.153v0.746h-3.153v7.883
			c0,1.244,0.248,2.544,1.716,2.544c0.967,0,1.466-0.553,1.991-1.244l0.498,0.359c-0.498,1.328-1.882,1.771-3.21,1.771
			c-1.991,0-3.346-0.774-3.346-2.849v-8.464H116.435z"/>
		<path fill="#00467F" d="M126.848,62.008c-0.193-0.47-0.469-1.162-0.802-1.549c-0.248-0.276-0.912-0.58-1.245-0.58v-0.553
			c0.94,0.026,1.88,0.083,2.822,0.11c1.05-0.027,2.074-0.083,3.124-0.11v0.553c-0.386,0.137-1.687,0.083-1.687,0.967
			c0,0.72,0.83,2.572,1.133,3.319l1.771,4.232l2.075-4.979c0.276-0.663,0.773-1.853,0.773-2.572c0-0.774-0.939-0.94-1.52-0.967
			v-0.553c0.719,0.026,1.411,0.083,2.13,0.11c0.608-0.027,1.218-0.083,1.825-0.11v0.553c-1.161,0.027-1.19,0.83-1.633,1.77
			l-0.359,0.802l-5.753,13.278c-0.359,0.855-1.161,2.987-2.322,2.987c-0.5,0.109-0.831-0.277-0.831-0.664
			c0-1.273,1.55-1.191,2.102-2.048c0.444-0.664,0.914-1.771,1.246-2.544l1.05-2.353L126.848,62.008z"/>
		<path fill="#00467F" d="M159.402,57.335h-0.636c-0.333-1.19-0.606-2.351-1.852-2.878c-1.191-0.525-2.767-0.497-4.095-0.497
			c-2.213,0-2.129-0.194-2.184,1.549v6.195c3.788,0.166,4.342-1.354,4.509-3.346h0.633c-0.026,1.245-0.055,2.517-0.109,3.761
			c0.055,1.135,0.083,2.296,0.109,3.431h-0.633c-0.39-2.904-1.853-2.96-4.509-2.96v3.484c0,0.858,0,2.905,0.275,3.651
			c0.414,1.106,1.771,0.886,2.739,0.94v0.636c-1.411-0.027-2.851-0.082-4.262-0.11c-1.409,0.028-2.791,0.083-4.259,0.11v-0.636
			c0.885,0,2.02,0,2.379-0.94c0.276-0.746,0.276-2.794,0.276-3.679v-7.799c0-0.886,0-2.933-0.276-3.679
			c-0.359-0.941-1.494-0.941-2.379-0.941v-0.636c1.688,0.026,3.319,0.083,4.951,0.11c2.96-0.027,5.92-0.083,8.878-0.11
			L159.402,57.335z"/>
		<path fill="#00467F" d="M172.979,65.301c0,3.733-3.041,6.306-6.665,6.306c-3.595,0-6.638-2.767-6.638-6.417
			c0-3.541,3.264-6.113,6.638-6.113C169.744,59.077,172.979,61.732,172.979,65.301z M162.441,65.301c0,2.627,0.775,5.67,4.012,5.67
			c3.015,0,3.762-3.043,3.762-5.504c0-2.655-0.747-5.753-4.01-5.753C163.19,59.713,162.441,62.894,162.441,65.301z"/>
		<path fill="#00467F" d="M176.699,64.719c0-0.746,0.026-2.711-0.167-3.347c-0.247-0.996-0.941-0.885-1.825-0.885v-0.553
			c1.3-0.083,2.516-0.582,3.733-0.858c0.25,0.803,0.359,1.798,0.331,2.793h0.057c0.719-1.687,2.102-2.793,4.01-2.793
			c0.858,0,1.963,0.415,1.963,1.438c0,0.525-0.44,0.996-0.968,0.996c-1.159,0-0.912-1.438-1.99-1.438
			c-0.83,0-1.743,0.691-2.157,1.383c-0.636,1.135-0.636,2.49-0.636,3.763v2.738c0,2.019-0.222,2.683,2.102,2.792v0.554
			c-1.052-0.027-2.13-0.082-3.18-0.11c-1.08,0.028-2.132,0.083-3.21,0.11v-0.554c2.075-0.137,1.938-0.801,1.938-2.627V64.719z"/>
		<path fill="#00467F" d="M53.785,84.371c0-0.887,0-2.934-0.248-3.679c-0.305-0.969-1.466-0.941-2.352-0.941v-0.636
			c1.328,0.027,2.628,0.082,3.956,0.109c1.106-0.027,2.186-0.082,3.291-0.109c2.905-0.083,6.805,0.663,6.805,4.343
			c0,2.515-2.047,3.595-4.149,4.232v0.055c1.55,0.137,2.96,0.386,4.039,1.133c1.3,0.886,2.129,2.213,2.129,3.819
			c0,1.822-1.134,3.179-2.683,4.009c-1.494,0.773-3.486,0.719-5.089,0.719c-1.217-0.026-2.406-0.081-3.624-0.111
			c-1.548,0.03-3.125,0.085-4.674,0.111v-0.636c0.886,0,2.047,0.027,2.352-0.941c0.248-0.745,0.248-2.791,0.248-3.679V84.371z
			 M56.635,87.44h0.884c1.217,0,2.214,0.056,3.292-0.582c1.162-0.745,1.411-1.935,1.411-3.263c0-2.462-1.328-3.68-3.79-3.68
			c-0.359,0-1.41-0.055-1.631,0.14c-0.194,0.165-0.166,0.939-0.166,1.161V87.44z M56.635,92.033c0,0.938,0,2.655,0.332,3.483
			c0.47,1.189,1.853,1.163,2.904,1.163c2.71,0,3.927-1.605,3.927-4.232c0-1.577-0.553-2.905-1.992-3.679
			c-1.272-0.664-2.904-0.583-4.315-0.583h-0.857V92.033z"/>
		<path fill="#00467F" d="M73.364,85.199v8.88c0.055,1.823-0.25,2.655,1.936,2.792v0.554c-0.941-0.026-1.964-0.081-2.959-0.111
			c-1.079,0.03-2.158,0.085-3.237,0.111v-0.554c2.047-0.137,1.881-0.8,1.909-2.627v-3.955c0-0.525,0-2.655-0.111-3.071
			c-0.194-0.69-1.356-0.636-1.909-0.607v-0.552L73.364,85.199z M70.375,80.277c0-0.83,0.664-1.494,1.495-1.494
			c0.83,0,1.465,0.664,1.465,1.494c0,0.801-0.635,1.465-1.41,1.465C71.095,81.742,70.375,81.134,70.375,80.277z"/>
		<path fill="#00467F" d="M90.206,91.424c0,3.733-3.042,6.306-6.666,6.306c-3.596,0-6.638-2.767-6.638-6.417
			c0-3.541,3.264-6.113,6.638-6.113C86.969,85.199,90.206,87.855,90.206,91.424z M79.667,91.424c0,2.627,0.774,5.67,4.011,5.67
			c3.015,0,3.762-3.043,3.762-5.505c0-2.656-0.747-5.754-4.011-5.754C80.414,85.835,79.667,89.019,79.667,91.424z"/>
		<path fill="#00467F" d="M96.315,94.079c0.027,1.823-0.304,2.655,1.854,2.792v0.554c-0.996-0.026-1.992-0.081-2.987-0.111
			c-1.051,0.03-2.102,0.085-3.154,0.111v-0.554c2.075-0.137,1.937-0.8,1.937-2.627v-3.402c0-0.774,0-2.711-0.138-3.346
			c-0.222-0.997-0.968-0.886-1.854-0.886v-0.552c1.438-0.169,2.461-0.609,3.816-0.859l0.305,2.241
			c1.052-1.41,2.379-2.241,4.177-2.241c1.632,0,3.236,0.581,3.79,2.241c0.967-1.468,2.434-2.241,4.203-2.241
			c1.218,0,2.434,0.331,3.237,1.328c0.746,0.913,0.746,2.518,0.746,3.65v3.901c0.029,1.823-0.275,2.655,1.882,2.792v0.554
			c-1.024-0.026-2.047-0.081-3.07-0.111c-1.022,0.03-2.048,0.085-3.07,0.111v-0.554c2.046-0.137,1.881-0.8,1.908-2.627V90.76
			c0-1.937,0.222-4.675-2.572-4.675c-1.134,0-2.213,0.802-2.683,1.825c-0.36,0.804-0.36,1.827-0.36,2.85v3.319
			c0.056,1.823-0.304,2.655,1.882,2.792v0.554c-0.996-0.026-2.019-0.081-3.015-0.111c-1.052,0.03-2.075,0.085-3.126,0.111v-0.554
			c2.075-0.137,1.882-0.8,1.908-2.627V90.76c0-1.937,0.222-4.675-2.572-4.675c-1.133,0-2.211,0.802-2.683,1.825
			c-0.359,0.804-0.359,1.827-0.359,2.85V94.079z"/>
		<path fill="#00467F" d="M123.312,89.847c0.278-0.138,0.224-0.497,0.224-0.802c0-1.882-0.166-3.21-2.436-3.21
			c-1.383,0-2.516,0.111-2.599,1.577c-0.058,0.609-0.416,1.217-1.107,1.217c-0.607,0-1.052-0.388-1.052-0.995
			c0-2.047,3.68-2.435,5.09-2.435c3.07,0,4.48,0.805,4.48,3.983v4.563c0,0.692-0.109,2.739,0.969,2.739
			c0.553,0,0.83-0.5,1.133-0.886l0.528,0.276c-0.445,0.913-1.468,1.854-2.491,1.854c-1.133,0-2.102-0.858-2.38-1.963
			c-1.299,1.05-2.902,1.963-4.618,1.963c-1.466,0-2.876-0.885-2.876-2.435c0-2.324,2.628-3.318,4.398-4.121L123.312,89.847z
			 M123.562,90.537c-1.658,0.804-4.813,1.882-4.813,4.095c0,1.022,0.638,1.991,1.771,1.991c1.08,0,2.27-0.83,3.043-1.575V90.537z"/>
		<path fill="#00467F" d="M129.691,86.418v-0.5c1.385-0.802,2.768-1.906,3.346-3.483h0.416v3.236h3.153v0.747h-3.153v7.881
			c0,1.244,0.248,2.546,1.716,2.546c0.968,0,1.466-0.555,1.991-1.245l0.498,0.359c-0.498,1.328-1.88,1.771-3.208,1.771
			c-1.991,0-3.348-0.775-3.348-2.851v-8.461H129.691z"/>
		<path fill="#00467F" d="M149.89,95.379c-1.302,1.604-2.851,2.351-4.924,2.351c-3.431,0-6.252-2.407-6.252-5.946
			c0-3.459,2.629-6.584,6.224-6.584c2.711,0,5.282,1.523,5.282,4.51c0,0.358-0.416,0.247-0.689,0.247h-7.94l-0.111,1.328
			c0,2.627,1.385,5.561,4.343,5.561c1.412,0,2.655-0.942,3.487-2.047L149.89,95.379z M146.294,89.209
			c0.44,0,1.354,0.141,1.354-0.552c0-1.716-0.94-2.822-2.683-2.822c-2.074,0-2.904,1.577-3.237,3.374H146.294z"/>
		<path fill="#00467F" d="M154.109,90.842c0-0.745,0.029-2.711-0.166-3.346c-0.248-0.997-0.942-0.886-1.825-0.886v-0.552
			c1.3-0.086,2.516-0.583,3.733-0.859c0.25,0.805,0.359,1.797,0.333,2.794h0.055c0.719-1.688,2.101-2.794,4.01-2.794
			c0.858,0,1.965,0.415,1.965,1.438c0,0.526-0.442,0.997-0.968,0.997c-1.162,0-0.914-1.439-1.992-1.439
			c-0.83,0-1.741,0.692-2.158,1.383c-0.635,1.137-0.635,2.49-0.635,3.764v2.738c0,2.019-0.222,2.682,2.101,2.792v0.554
			c-1.049-0.026-2.129-0.081-3.179-0.111c-1.08,0.03-2.132,0.085-3.21,0.111v-0.554c2.075-0.137,1.936-0.8,1.936-2.627V90.842z"/>
		<path fill="#00467F" d="M168.392,85.199v8.88c0.057,1.823-0.248,2.655,1.936,2.792v0.554c-0.939-0.026-1.963-0.081-2.96-0.111
			c-1.078,0.03-2.155,0.085-3.233,0.111v-0.554c2.046-0.137,1.88-0.8,1.906-2.627v-3.955c0-0.525,0-2.655-0.109-3.071
			c-0.195-0.69-1.356-0.636-1.909-0.607v-0.552L168.392,85.199z M165.405,80.277c0-0.83,0.664-1.494,1.494-1.494
			c0.828,0,1.466,0.664,1.466,1.494c0,0.801-0.638,1.465-1.411,1.465C166.126,81.742,165.405,81.134,165.405,80.277z"/>
		<path fill="#00467F" d="M179.462,89.847c0.276-0.138,0.222-0.497,0.222-0.802c0-1.882-0.165-3.21-2.435-3.21
			c-1.383,0-2.518,0.111-2.601,1.577c-0.055,0.609-0.414,1.217-1.104,1.217c-0.609,0-1.054-0.388-1.054-0.995
			c0-2.047,3.679-2.435,5.092-2.435c3.069,0,4.48,0.805,4.48,3.983v4.563c0,0.692-0.111,2.739,0.966,2.739
			c0.555,0,0.833-0.5,1.136-0.886l0.525,0.276c-0.442,0.913-1.466,1.854-2.489,1.854c-1.135,0-2.102-0.858-2.379-1.963
			c-1.3,1.05-2.903,1.963-4.618,1.963c-1.466,0-2.877-0.885-2.877-2.435c0-2.324,2.627-3.318,4.397-4.121L179.462,89.847z
			 M179.712,90.537c-1.661,0.804-4.814,1.882-4.814,4.095c0,1.022,0.637,1.991,1.77,1.991c1.078,0,2.268-0.83,3.044-1.575V90.537z"
			/>
		<path fill="#00467F" d="M190.453,94.079c0.055,1.823-0.25,2.655,1.937,2.792v0.554c-1.078-0.026-2.13-0.081-3.182-0.111
			c-1.022,0.03-2.02,0.085-3.043,0.111v-0.554c2.075-0.137,1.937-0.8,1.937-2.627V83.622c0-0.69,0-2.379-0.275-2.959
			c-0.333-0.69-1.161-0.635-1.797-0.719v-0.553l4.424-0.886V94.079z"/>
		<path fill="#00467F" d="M194.966,97.534h-0.276l-0.109-3.954h0.555c0.44,1.772,1.382,3.514,3.429,3.514
			c1.218,0,2.322-0.608,2.322-1.936c0-1.577-1.604-2.213-2.792-2.819c-1.605-0.833-3.318-1.744-3.318-3.819
			c0-1.908,1.519-3.319,3.429-3.319c0.856,0,1.908,0.25,2.682,0.69l0.554-0.664h0.333l-0.057,3.46h-0.552
			c-0.5-1.385-1.108-2.851-2.851-2.851c-0.913,0-1.77,0.528-1.77,1.522c0,1.438,1.52,1.935,2.574,2.516
			c1.906,0.997,3.65,1.716,3.65,4.206c0,2.268-1.936,3.65-4.066,3.65c-1.052,0-2.213-0.331-3.043-0.995L194.966,97.534z"/>
	</g>
</g>
<path fill="#FBB034" d="M24.056,38.408C14.325,39.845,5.542,32.05,5.36,22.333c-0.128-6.729,3.408-11.447,9.315-14.526
	c11.276-5.874,21.414-1.328,28.805,2.747c4.738,2.613,9.519,5.161,14.373,7.555c5.414,2.674,12.08,6.039,18.301,5.395
	c5.6-0.579,9.885-4.605,13.18-8.875c0,0-1.8,19.327-25.485,18.663c0,0-7.485,0.285-21.98-8.716c-3.998-2.48-8.67-5.321-13.498-5.665
	c-7.7-0.551-14.883,5.793-11.746,13.629C17.522,34.778,21.254,38.838,24.056,38.408z"/>
<path fill="#FECF8D" d="M29.66,37.647c-9.129,2.986-15.11-11.353-5.265-14.838c6.803-2.408,12.976,1.356,18.512,4.96
	c5.953,3.877,13.25,8.081,20.674,7.393c0,0-8.845,3.728-18.202-0.292c-4.728-2.031-14.433-8.62-17.977-1.714
	C26.7,34.516,27.084,38.489,29.66,37.647z"/>
<path fill="#00467F" d="M32.62,52.653H12.556c-0.941,0-1.703,0.763-1.703,1.703c0,0.767,0.509,1.405,1.204,1.62l7.464,63.542
	c-0.702,0.512-1.176,1.432-1.176,2.487c0,1.35,0.764,2.471,1.798,2.808l1.881,16.016c0.034,0.286,0.277,0.503,0.563,0.503
	c0.289,0,0.533-0.217,0.566-0.503l1.882-16.021c1.023-0.344,1.778-1.462,1.778-2.802c0-1.05-0.466-1.961-1.158-2.477l7.465-63.553
	c0.694-0.215,1.205-0.854,1.205-1.62C34.325,53.417,33.561,52.653,32.62,52.653z M40.05,41.861
	c-0.108-0.135-0.271-0.213-0.444-0.213l-3.813,0.005c-0.562-0.929-1.57-1.515-2.672-1.515H12.053c-1.1,0-2.107,0.586-2.671,1.515
	L5.57,41.648c-0.173,0-0.338,0.078-0.444,0.213c-0.11,0.135-0.149,0.312-0.112,0.481l1.104,4.877
	c0.746,2.91,2.591,4.572,5.063,4.572h22.812c2.473,0,4.316-1.662,5.058-4.557c0.003-0.015,1.109-4.893,1.109-4.893
	C40.2,42.174,40.16,41.997,40.05,41.861z"/>
</svg>
